<?xml version="1.0" encoding="UTF-8"?>
<svg xmlns="http://www.w3.org/2000/svg" xmlns:xlink="http://www.w3.org/1999/xlink" width="375pt" height="374.999991pt" viewBox="0 0 375 374.999991" version="1.2">
<defs>
<clipPath id="clip1">
  <path d="M 40 231 L 122 231 L 122 338.902344 L 40 338.902344 Z M 40 231 "/>
</clipPath>
<clipPath id="clip2">
  <path d="M 40 155 L 336 155 L 336 338.902344 L 40 338.902344 Z M 40 155 "/>
</clipPath>
<clipPath id="clip3">
  <path d="M 30.183594 36.175781 L 345.183594 36.175781 L 345.183594 218 L 30.183594 218 Z M 30.183594 36.175781 "/>
</clipPath>
<clipPath id="clip4">
  <path d="M 30.183594 165 L 122 165 L 122 265 L 30.183594 265 Z M 30.183594 165 "/>
</clipPath>
<clipPath id="clip5">
  <path d="M 121 88 L 345.183594 88 L 345.183594 265 L 121 265 Z M 121 88 "/>
</clipPath>
</defs>
<g id="surface1">
<g clip-path="url(#clip1)" clip-rule="nonzero">
<path style=" stroke:none;fill-rule:evenodd;fill:rgb(27.449036%,18.429565%,19.60907%);fill-opacity:1;" d="M 121.542969 338.578125 L 121.542969 338.902344 L 121.234375 338.738281 L 40.070312 292.042969 L 40.070312 231.558594 L 121.234375 278.253906 L 121.234375 338.738281 L 121.542969 338.578125 "/>
</g>
<g clip-path="url(#clip2)" clip-rule="nonzero">
<path style=" stroke:none;fill-rule:evenodd;fill:rgb(16.079712%,10.5896%,10.978699%);fill-opacity:1;" d="M 317.550781 165.441406 L 335.535156 155.109375 L 335.535156 215.269531 L 121.542969 338.578125 L 121.234375 338.738281 L 121.234375 278.578125 L 121.542969 278.417969 L 145.261719 264.789062 L 145.421875 269.019531 L 151.070312 274.023438 L 190.785156 250.046875 L 190.390625 238.777344 L 272.351562 191.542969 L 272.585938 197.105469 L 278.230469 202.109375 L 317.949219 178.132812 Z M 121.46875 264.699219 L 121.542969 264.789062 L 121.542969 278.417969 L 121.234375 278.253906 L 40.070312 231.558594 L 40.070312 217.859375 L 121.398438 264.699219 L 121.398438 264.789062 L 121.46875 264.699219 "/>
</g>
<g clip-path="url(#clip3)" clip-rule="nonzero">
<path style=" stroke:none;fill-rule:evenodd;fill:rgb(92.939758%,11.369324%,14.118958%);fill-opacity:1;" d="M 30.347656 165.207031 L 151.773438 95.183594 C 150.996094 98.351562 150.617188 101.917969 150.601562 105.839844 L 53.742188 161.699219 L 125.003906 202.742188 L 320.148438 90.234375 L 248.867188 49.191406 L 226.734375 61.972656 C 225.382812 59.164062 223.597656 57.148438 221.394531 55.921875 C 221.199219 55.742188 221 55.546875 220.78125 55.382812 L 254.0625 36.195312 L 345.417969 88.828125 L 121.46875 217.699219 L 30.347656 165.207031 "/>
</g>
<path style=" stroke:none;fill-rule:evenodd;fill:rgb(8.628845%,7.449341%,7.058716%);fill-opacity:1;" d="M 190.390625 238.777344 L 189.921875 225.296875 L 271.882812 178.132812 L 272.351562 191.542969 Z M 121.234375 278.578125 L 121.234375 278.253906 L 121.542969 278.417969 L 121.542969 264.628906 L 144.703125 251.308594 L 145.261719 264.789062 L 121.542969 278.417969 Z M 335.535156 155.109375 L 317.550781 165.441406 L 317.082031 152.140625 L 335.535156 141.554688 L 335.535156 155.109375 "/>
<path style=" stroke:none;fill-rule:evenodd;fill:rgb(28.239441%,18.429565%,19.60907%);fill-opacity:1;" d="M 172.730469 124.5625 L 172.101562 109.511719 C 172.101562 109.40625 172.101562 109.261719 172.101562 109.042969 C 171.683594 102.996094 172.894531 98.800781 175.707031 96.515625 C 176.25 96.40625 176.664062 96.246094 176.96875 96.046875 L 208.210938 75.976562 C 208.210938 76.085938 208.210938 76.300781 208.210938 76.605469 L 208.679688 90.394531 C 207.328125 90.917969 205.902344 91.65625 204.441406 92.589844 C 200.363281 95.09375 198.378906 98.027344 198.488281 101.375 C 198.578125 104.707031 200.832031 107.585938 205.234375 109.980469 C 209.527344 112.175781 214.648438 113.167969 220.621094 112.96875 C 226.480469 112.753906 231.496094 111.382812 235.699219 108.882812 C 239.867188 106.164062 241.921875 103.085938 241.8125 99.648438 C 241.707031 96.300781 239.449219 93.472656 235.050781 91.1875 C 233.5 90.449219 231.855469 89.875 230.199219 89.460938 L 229.964844 81.863281 L 273.523438 106.847656 L 303.03125 89.925781 L 247.621094 58.121094 L 228.933594 68.867188 C 228.414062 66.183594 227.671875 63.878906 226.734375 61.972656 L 248.867188 49.191406 L 320.148438 90.234375 L 125.003906 202.742188 L 53.742188 161.699219 L 150.601562 105.839844 C 150.617188 107.28125 150.652344 108.773438 150.746094 110.304688 C 150.746094 110.394531 150.746094 110.503906 150.746094 110.609375 L 151.375 125.964844 C 149.914062 126.488281 148.617188 127.117188 147.460938 127.835938 C 143.367188 130.359375 141.382812 133.273438 141.492188 136.621094 C 141.601562 140.058594 143.855469 142.941406 148.238281 145.246094 C 152.636719 147.421875 157.816406 148.429688 163.785156 148.214844 C 169.648438 148 174.625 146.648438 178.703125 144.148438 C 182.886719 141.535156 184.925781 138.441406 184.816406 134.894531 C 184.726562 131.546875 182.472656 128.792969 178.070312 126.59375 C 176.394531 125.660156 174.625 124.976562 172.730469 124.5625 Z M 114.183594 134.425781 L 74.304688 157.304688 L 129.550781 189.257812 L 169.429688 166.394531 L 114.183594 134.425781 "/>
<path style=" stroke:none;fill-rule:evenodd;fill:rgb(83.139038%,76.078796%,77.249146%);fill-opacity:1;" d="M 228.933594 68.867188 L 247.621094 58.121094 L 303.03125 89.925781 L 273.523438 106.847656 L 229.964844 81.863281 L 229.730469 75.203125 C 229.730469 74.894531 229.730469 74.679688 229.730469 74.574219 C 229.546875 72.503906 229.277344 70.613281 228.933594 68.867188 Z M 114.183594 134.425781 L 169.429688 166.394531 L 129.550781 189.257812 L 74.304688 157.304688 L 114.183594 134.425781 "/>
<path style=" stroke:none;fill-rule:evenodd;fill:rgb(90.979004%,58.81958%,17.248535%);fill-opacity:1;" d="M 174.769531 230.949219 L 166.617188 236.113281 L 167.394531 259.136719 L 175.5625 253.972656 Z M 150.132812 248.175781 L 149.804688 235.953125 L 189.542969 211.976562 L 189.921875 225.296875 L 190.390625 238.777344 L 190.785156 250.046875 L 151.070312 274.023438 Z M 317.082031 152.140625 L 317.550781 165.441406 L 317.949219 178.132812 L 278.230469 202.109375 L 277.292969 176.261719 L 276.984375 164.039062 L 316.6875 140.058594 Z M 301.929688 159.035156 L 293.777344 164.199219 L 294.554688 187.222656 L 302.726562 182.058594 Z M 220.78125 55.382812 C 221 55.546875 221.199219 55.742188 221.394531 55.921875 C 223.597656 57.148438 225.382812 59.164062 226.734375 61.972656 C 227.671875 63.878906 228.414062 66.183594 228.933594 68.867188 C 229.277344 70.613281 229.546875 72.503906 229.730469 74.574219 C 229.730469 74.679688 229.730469 74.894531 229.730469 75.203125 L 229.964844 81.863281 L 230.199219 89.460938 C 231.855469 89.875 233.5 90.449219 235.050781 91.1875 C 239.449219 93.472656 241.707031 96.300781 241.8125 99.648438 C 241.921875 103.085938 239.867188 106.164062 235.699219 108.882812 C 231.496094 111.382812 226.480469 112.753906 220.621094 112.96875 C 214.648438 113.167969 209.527344 112.175781 205.234375 109.980469 C 200.832031 107.585938 198.578125 104.707031 198.488281 101.375 C 198.378906 98.027344 200.363281 95.09375 204.441406 92.589844 C 205.902344 91.65625 207.328125 90.917969 208.679688 90.394531 L 208.210938 76.605469 C 208.210938 76.300781 208.210938 76.085938 208.210938 75.976562 C 212.71875 72.429688 215.75 73.941406 217.320312 80.53125 L 218.257812 105.28125 C 216.074219 104.867188 214.074219 103.933594 212.304688 102.457031 C 210.105469 100.367188 208.949219 97.867188 208.84375 94.949219 L 208.679688 90.71875 C 208.046875 90.917969 207.523438 91.242188 207.109375 91.65625 C 203.558594 93.636719 201.824219 96.046875 201.933594 98.855469 C 202.042969 101.878906 203.863281 104.398438 207.433594 106.378906 C 211.203125 108.164062 215.425781 108.882812 220.152344 108.578125 C 225.058594 108.46875 229.351562 107.316406 233.011719 105.121094 C 236.367188 103.03125 237.988281 100.53125 237.882812 97.613281 C 237.773438 94.789062 235.953125 92.539062 232.378906 90.863281 C 231.550781 90.449219 230.828125 90.144531 230.199219 89.925781 L 230.34375 94.15625 C 230.449219 97.089844 229.457031 99.703125 227.367188 101.988281 C 226.535156 102.941406 225.6875 103.664062 224.859375 104.183594 L 224.371094 90.863281 C 224.171875 90.339844 224.066406 89.511719 224.066406 88.359375 C 223.867188 86.796875 223.8125 84.761719 223.921875 82.257812 C 223.847656 80.890625 223.722656 79.523438 223.523438 78.171875 C 223.21875 76.335938 222.820312 74.519531 222.261719 72.699219 C 221.8125 71.117188 221.269531 69.550781 220.621094 68 C 220.332031 67.265625 220.042969 66.617188 219.753906 66.039062 C 217.804688 62.441406 215.210938 61.25 211.980469 62.511719 C 208.320312 63.664062 204.496094 65.535156 200.527344 68.144531 L 174.625 86.019531 C 169.609375 89.082031 166.257812 93.003906 164.5625 97.757812 C 163.804688 99.988281 163.371094 102.402344 163.316406 104.976562 C 163.207031 113.003906 163.152344 117.089844 163.152344 117.199219 L 163.152344 138.1875 C 162.957031 138.1875 162.683594 138.1875 162.378906 138.1875 C 159.4375 138.296875 156.878906 137.304688 154.675781 135.21875 C 152.585938 133.328125 151.484375 130.878906 151.375 127.835938 L 151.375 126.273438 C 150.851562 126.488281 150.382812 126.703125 149.96875 126.902344 C 146.613281 128.988281 144.992188 131.457031 145.097656 134.265625 C 145.207031 137.199219 146.992188 139.644531 150.4375 141.625 C 154.097656 143.410156 158.390625 144.148438 163.316406 143.824219 C 168.242188 143.734375 172.425781 142.617188 175.871094 140.546875 C 179.421875 138.351562 181.15625 135.832031 181.046875 133.023438 C 180.957031 130.195312 179.0625 127.835938 175.402344 125.964844 C 174.570312 125.550781 173.667969 125.226562 172.730469 125.03125 L 172.730469 124.5625 C 174.625 124.976562 176.394531 125.660156 178.070312 126.59375 C 182.472656 128.792969 184.726562 131.546875 184.816406 134.894531 C 184.925781 138.441406 182.886719 141.535156 178.703125 144.148438 C 174.625 146.648438 169.648438 148 163.785156 148.214844 C 157.816406 148.429688 152.636719 147.421875 148.238281 145.246094 C 143.855469 142.941406 141.601562 140.058594 141.492188 136.621094 C 141.382812 133.273438 143.367188 130.359375 147.460938 127.835938 C 148.617188 127.117188 149.914062 126.488281 151.375 125.964844 L 150.746094 110.609375 C 150.746094 110.503906 150.746094 110.394531 150.746094 110.304688 C 150.652344 108.773438 150.617188 107.28125 150.601562 105.839844 C 150.617188 101.917969 150.996094 98.351562 151.773438 95.183594 C 153.847656 86.667969 158.574219 80.800781 165.984375 77.542969 L 199.570312 55.921875 C 199.894531 55.617188 200.148438 55.402344 200.363281 55.3125 C 209.003906 50.882812 215.824219 50.917969 220.78125 55.382812 "/>
<path style=" stroke:none;fill-rule:evenodd;fill:rgb(98.429871%,80.389404%,53.329468%);fill-opacity:1;" d="M 189.542969 211.976562 L 149.804688 235.953125 L 150.132812 248.175781 L 144.628906 248.480469 L 144.160156 233.449219 L 183.878906 209.3125 Z M 277.292969 176.261719 L 271.792969 176.566406 L 271.324219 161.535156 L 311.039062 137.394531 L 316.6875 140.058594 L 276.984375 164.039062 Z M 224.859375 104.183594 C 223.398438 104.921875 221.828125 105.28125 220.152344 105.28125 C 219.519531 105.390625 218.886719 105.390625 218.257812 105.28125 L 217.320312 80.53125 C 215.75 73.941406 212.71875 72.429688 208.210938 75.976562 L 176.96875 96.046875 C 176.664062 96.246094 176.25 96.40625 175.707031 96.515625 C 172.894531 98.800781 171.683594 102.996094 172.101562 109.042969 C 172.101562 109.261719 172.101562 109.40625 172.101562 109.511719 L 172.730469 124.5625 L 172.730469 127.0625 C 172.839844 130.085938 171.902344 132.644531 169.898438 134.730469 C 168.332031 136.40625 166.5625 137.503906 164.5625 138.027344 C 164.144531 138.027344 163.839844 138.082031 163.621094 138.1875 C 163.316406 138.496094 163.101562 138.980469 162.992188 139.59375 L 163.152344 138.1875 L 163.152344 117.199219 C 163.152344 117.089844 163.207031 113.003906 163.316406 104.976562 C 163.371094 102.402344 163.804688 99.988281 164.5625 97.757812 C 166.257812 93.003906 169.609375 89.082031 174.625 86.019531 L 200.527344 68.144531 C 204.496094 65.535156 208.320312 63.664062 211.980469 62.511719 C 215.210938 61.25 217.804688 62.441406 219.753906 66.039062 C 220.042969 66.617188 220.332031 67.265625 220.621094 68 C 221.269531 69.550781 221.8125 71.117188 222.261719 72.699219 C 222.820312 74.519531 223.21875 76.335938 223.523438 78.171875 C 223.722656 79.523438 223.847656 80.890625 223.921875 82.257812 C 223.8125 84.761719 223.867188 86.796875 224.066406 88.359375 C 224.066406 89.511719 224.171875 90.339844 224.371094 90.863281 L 224.859375 104.183594 "/>
<path style=" stroke:none;fill-rule:evenodd;fill:rgb(56.469727%,25.099182%,10.978699%);fill-opacity:1;" d="M 218.257812 105.28125 C 218.886719 105.390625 219.519531 105.390625 220.152344 105.28125 C 221.828125 105.28125 223.398438 104.921875 224.859375 104.183594 C 225.6875 103.664062 226.535156 102.941406 227.367188 101.988281 C 229.457031 99.703125 230.449219 97.089844 230.34375 94.15625 L 230.199219 89.925781 C 230.828125 90.144531 231.550781 90.449219 232.378906 90.863281 C 235.953125 92.539062 237.773438 94.789062 237.882812 97.613281 C 237.988281 100.53125 236.367188 103.03125 233.011719 105.121094 C 229.351562 107.316406 225.058594 108.46875 220.152344 108.578125 C 215.425781 108.882812 211.203125 108.164062 207.433594 106.378906 C 203.863281 104.398438 202.042969 101.878906 201.933594 98.855469 C 201.824219 96.046875 203.558594 93.636719 207.109375 91.65625 C 207.523438 91.242188 208.046875 90.917969 208.679688 90.71875 L 208.84375 94.949219 C 208.949219 97.867188 210.105469 100.367188 212.304688 102.457031 C 214.074219 103.933594 216.074219 104.867188 218.257812 105.28125 Z M 163.152344 138.1875 L 162.992188 139.59375 C 163.101562 138.980469 163.316406 138.496094 163.621094 138.1875 C 163.839844 138.082031 164.144531 138.027344 164.5625 138.027344 C 166.5625 137.503906 168.332031 136.40625 169.898438 134.730469 C 171.902344 132.644531 172.839844 130.085938 172.730469 127.0625 L 172.730469 125.03125 C 173.667969 125.226562 174.570312 125.550781 175.402344 125.964844 C 179.0625 127.835938 180.957031 130.195312 181.046875 133.023438 C 181.15625 135.832031 179.421875 138.351562 175.871094 140.546875 C 172.425781 142.617188 168.242188 143.734375 163.316406 143.824219 C 158.390625 144.148438 154.097656 143.410156 150.4375 141.625 C 146.992188 139.644531 145.207031 137.199219 145.097656 134.265625 C 144.992188 131.457031 146.613281 128.988281 149.96875 126.902344 C 150.382812 126.703125 150.851562 126.488281 151.375 126.273438 L 151.375 127.835938 C 151.484375 130.878906 152.585938 133.328125 154.675781 135.21875 C 156.878906 137.304688 159.4375 138.296875 162.378906 138.1875 C 162.683594 138.1875 162.957031 138.1875 163.152344 138.1875 "/>
<g clip-path="url(#clip4)" clip-rule="nonzero">
<path style=" stroke:none;fill-rule:evenodd;fill:rgb(77.249146%,11.759949%,14.509583%);fill-opacity:1;" d="M 121.542969 264.628906 L 121.542969 264.789062 L 121.46875 264.699219 Z M 30.347656 165.207031 L 121.46875 217.699219 L 121.398438 217.769531 L 121.398438 264.699219 L 40.070312 217.859375 L 30.183594 212.136719 L 30.183594 165.136719 L 30.347656 165.207031 "/>
</g>
<g clip-path="url(#clip5)" clip-rule="nonzero">
<path style=" stroke:none;fill-rule:evenodd;fill:rgb(67.83905%,10.978699%,13.328552%);fill-opacity:1;" d="M 271.792969 176.566406 L 271.882812 178.132812 L 189.921875 225.296875 L 189.542969 211.976562 L 183.878906 209.3125 L 144.160156 233.449219 L 144.628906 248.480469 L 144.703125 251.308594 L 121.542969 264.628906 L 121.46875 264.699219 L 121.398438 264.789062 L 121.398438 217.769531 L 121.46875 217.699219 L 345.417969 88.828125 L 345.417969 135.832031 L 335.535156 141.554688 L 317.082031 152.140625 L 316.6875 140.058594 L 311.039062 137.394531 L 271.324219 161.535156 L 271.792969 176.566406 "/>
</g>
<path style=" stroke:none;fill-rule:evenodd;fill:rgb(74.899292%,41.178894%,21.179199%);fill-opacity:1;" d="M 174.769531 230.949219 L 175.5625 253.972656 L 167.394531 259.136719 L 166.617188 236.113281 Z M 271.792969 176.566406 L 277.292969 176.261719 L 278.230469 202.109375 L 272.585938 197.105469 L 272.351562 191.542969 L 271.882812 178.132812 Z M 150.132812 248.175781 L 151.070312 274.023438 L 145.421875 269.019531 L 145.261719 264.789062 L 144.703125 251.308594 L 144.628906 248.480469 Z M 301.929688 159.035156 L 302.726562 182.058594 L 294.554688 187.222656 L 293.777344 164.199219 L 301.929688 159.035156 "/>
</g>
</svg>
